<mxfile host="app.diagrams.net" agent="Mozilla/5.0 (X11; Linux x86_64) AppleWebKit/537.36 (KHTML, like Gecko) Chrome/135.0.0.0 Safari/537.36" version="27.0.3">
  <diagram name="Страница — 1" id="OierVIkMfjGN-B4ey3dN">
    <mxGraphModel dx="3354" dy="630" grid="1" gridSize="10" guides="1" tooltips="1" connect="1" arrows="1" fold="1" page="1" pageScale="1" pageWidth="827" pageHeight="1169" math="0" shadow="0">
      <root>
        <mxCell id="0" />
        <mxCell id="1" parent="0" />
        <mxCell id="NnDwrbV4detBzDNsZIa--3" style="edgeStyle=orthogonalEdgeStyle;rounded=0;orthogonalLoop=1;jettySize=auto;html=1;" edge="1" parent="1" source="NnDwrbV4detBzDNsZIa--1" target="NnDwrbV4detBzDNsZIa--2">
          <mxGeometry relative="1" as="geometry" />
        </mxCell>
        <mxCell id="NnDwrbV4detBzDNsZIa--10" style="edgeStyle=orthogonalEdgeStyle;rounded=0;orthogonalLoop=1;jettySize=auto;html=1;exitX=0.5;exitY=0;exitDx=0;exitDy=0;exitPerimeter=0;entryX=0.5;entryY=1;entryDx=0;entryDy=0;" edge="1" parent="1" source="NnDwrbV4detBzDNsZIa--1" target="NnDwrbV4detBzDNsZIa--9">
          <mxGeometry relative="1" as="geometry" />
        </mxCell>
        <mxCell id="NnDwrbV4detBzDNsZIa--1" value="Пользователь&lt;div&gt;&lt;br&gt;&lt;/div&gt;" style="shape=umlActor;verticalLabelPosition=bottom;verticalAlign=top;html=1;outlineConnect=0;" vertex="1" parent="1">
          <mxGeometry x="230" y="320" width="30" height="60" as="geometry" />
        </mxCell>
        <mxCell id="NnDwrbV4detBzDNsZIa--2" value="сервис C:&lt;div&gt;Авторизация&lt;/div&gt;" style="rounded=0;whiteSpace=wrap;html=1;" vertex="1" parent="1">
          <mxGeometry x="354" y="330" width="120" height="60" as="geometry" />
        </mxCell>
        <mxCell id="NnDwrbV4detBzDNsZIa--5" value="Сервис c++:&lt;div&gt;&amp;nbsp;регистрация&lt;/div&gt;" style="rounded=0;whiteSpace=wrap;html=1;" vertex="1" parent="1">
          <mxGeometry x="354" y="190" width="120" height="60" as="geometry" />
        </mxCell>
        <mxCell id="NnDwrbV4detBzDNsZIa--6" value="" style="endArrow=classic;html=1;rounded=0;entryX=0.467;entryY=0;entryDx=0;entryDy=0;entryPerimeter=0;" edge="1" parent="1" target="NnDwrbV4detBzDNsZIa--2">
          <mxGeometry width="50" height="50" relative="1" as="geometry">
            <mxPoint x="410" y="250" as="sourcePoint" />
            <mxPoint x="460" y="200" as="targetPoint" />
          </mxGeometry>
        </mxCell>
        <mxCell id="NnDwrbV4detBzDNsZIa--7" value="&amp;lt;&amp;lt;extend&amp;gt;&amp;gt;" style="text;html=1;align=center;verticalAlign=middle;resizable=0;points=[];autosize=1;strokeColor=none;fillColor=none;" vertex="1" parent="1">
          <mxGeometry x="410" y="278" width="90" height="30" as="geometry" />
        </mxCell>
        <mxCell id="NnDwrbV4detBzDNsZIa--8" value="&amp;lt;&amp;lt;include&amp;gt;&amp;gt;" style="text;html=1;align=center;verticalAlign=middle;resizable=0;points=[];autosize=1;strokeColor=none;fillColor=none;" vertex="1" parent="1">
          <mxGeometry x="264" y="370" width="90" height="30" as="geometry" />
        </mxCell>
        <mxCell id="NnDwrbV4detBzDNsZIa--9" value="Сервис GO.&lt;div&gt;Просмотр товаров&lt;/div&gt;" style="rounded=0;whiteSpace=wrap;html=1;" vertex="1" parent="1">
          <mxGeometry x="80" y="170" width="120" height="60" as="geometry" />
        </mxCell>
        <mxCell id="NnDwrbV4detBzDNsZIa--11" value="Сервис Python:&lt;div&gt;Добавление в корзину и оплата&lt;/div&gt;" style="rounded=0;whiteSpace=wrap;html=1;" vertex="1" parent="1">
          <mxGeometry x="-40" y="320" width="120" height="60" as="geometry" />
        </mxCell>
        <mxCell id="NnDwrbV4detBzDNsZIa--14" value="" style="endArrow=none;html=1;rounded=0;startArrow=classic;startFill=1;" edge="1" parent="1" target="NnDwrbV4detBzDNsZIa--1">
          <mxGeometry width="50" height="50" relative="1" as="geometry">
            <mxPoint x="80" y="350" as="sourcePoint" />
            <mxPoint x="130" y="300" as="targetPoint" />
          </mxGeometry>
        </mxCell>
        <mxCell id="NnDwrbV4detBzDNsZIa--15" value="&amp;lt;&amp;lt;include&amp;gt;&amp;gt;" style="text;html=1;align=center;verticalAlign=middle;resizable=0;points=[];autosize=1;strokeColor=none;fillColor=none;" vertex="1" parent="1">
          <mxGeometry x="180" y="248" width="90" height="30" as="geometry" />
        </mxCell>
        <mxCell id="NnDwrbV4detBzDNsZIa--16" value="&amp;lt;&amp;lt;include&amp;gt;&amp;gt;" style="text;html=1;align=center;verticalAlign=middle;resizable=0;points=[];autosize=1;strokeColor=none;fillColor=none;" vertex="1" parent="1">
          <mxGeometry x="120" y="310" width="90" height="30" as="geometry" />
        </mxCell>
        <mxCell id="NnDwrbV4detBzDNsZIa--22" style="edgeStyle=orthogonalEdgeStyle;rounded=0;orthogonalLoop=1;jettySize=auto;html=1;entryX=1;entryY=0.5;entryDx=0;entryDy=0;" edge="1" parent="1" source="NnDwrbV4detBzDNsZIa--20" target="NnDwrbV4detBzDNsZIa--2">
          <mxGeometry relative="1" as="geometry" />
        </mxCell>
        <mxCell id="NnDwrbV4detBzDNsZIa--25" style="edgeStyle=orthogonalEdgeStyle;rounded=0;orthogonalLoop=1;jettySize=auto;html=1;exitX=0.5;exitY=0;exitDx=0;exitDy=0;exitPerimeter=0;entryX=0.5;entryY=1;entryDx=0;entryDy=0;" edge="1" parent="1" source="NnDwrbV4detBzDNsZIa--20" target="NnDwrbV4detBzDNsZIa--24">
          <mxGeometry relative="1" as="geometry" />
        </mxCell>
        <mxCell id="NnDwrbV4detBzDNsZIa--27" style="edgeStyle=orthogonalEdgeStyle;rounded=0;orthogonalLoop=1;jettySize=auto;html=1;exitX=1;exitY=0.3333333333333333;exitDx=0;exitDy=0;exitPerimeter=0;" edge="1" parent="1" source="NnDwrbV4detBzDNsZIa--20" target="NnDwrbV4detBzDNsZIa--26">
          <mxGeometry relative="1" as="geometry" />
        </mxCell>
        <mxCell id="NnDwrbV4detBzDNsZIa--20" value="Администратор" style="shape=umlActor;verticalLabelPosition=bottom;verticalAlign=top;html=1;outlineConnect=0;" vertex="1" parent="1">
          <mxGeometry x="610" y="310" width="30" height="60" as="geometry" />
        </mxCell>
        <mxCell id="NnDwrbV4detBzDNsZIa--21" value="Да конечно идея контроля каждого заказа админстратором плохая, но бд делалась для аксесса))" style="shape=callout;whiteSpace=wrap;html=1;perimeter=calloutPerimeter;" vertex="1" parent="1">
          <mxGeometry x="-230" y="680" width="215" height="170" as="geometry" />
        </mxCell>
        <mxCell id="NnDwrbV4detBzDNsZIa--23" value="&amp;lt;&amp;lt;include&amp;gt;&amp;gt;" style="text;html=1;align=center;verticalAlign=middle;resizable=0;points=[];autosize=1;strokeColor=none;fillColor=none;" vertex="1" parent="1">
          <mxGeometry x="480" y="308" width="90" height="30" as="geometry" />
        </mxCell>
        <mxCell id="NnDwrbV4detBzDNsZIa--24" value="&lt;div&gt;Сервис GO&lt;/div&gt;Добавление, удаление товаров" style="rounded=0;whiteSpace=wrap;html=1;" vertex="1" parent="1">
          <mxGeometry x="520" y="150" width="120" height="60" as="geometry" />
        </mxCell>
        <mxCell id="NnDwrbV4detBzDNsZIa--26" value="Сервис Python:&lt;div&gt;Подтверждение заказов и отправление в доставку&lt;/div&gt;" style="rounded=0;whiteSpace=wrap;html=1;" vertex="1" parent="1">
          <mxGeometry x="780" y="290" width="120" height="90" as="geometry" />
        </mxCell>
        <mxCell id="NnDwrbV4detBzDNsZIa--29" value="&amp;lt;&amp;lt;include&amp;gt;&amp;gt;" style="text;html=1;align=center;verticalAlign=middle;resizable=0;points=[];autosize=1;strokeColor=none;fillColor=none;" vertex="1" parent="1">
          <mxGeometry x="680" y="338" width="90" height="30" as="geometry" />
        </mxCell>
        <mxCell id="NnDwrbV4detBzDNsZIa--30" value="&amp;lt;&amp;lt;include&amp;gt;&amp;gt;" style="text;html=1;align=center;verticalAlign=middle;resizable=0;points=[];autosize=1;strokeColor=none;fillColor=none;" vertex="1" parent="1">
          <mxGeometry x="640" y="280" width="90" height="30" as="geometry" />
        </mxCell>
        <mxCell id="NnDwrbV4detBzDNsZIa--35" value="Сервис RUST: заказов товаров у поставщиков/ добавление новых поставщиков&amp;nbsp;" style="rounded=0;whiteSpace=wrap;html=1;" vertex="1" parent="1">
          <mxGeometry x="710" y="150" width="120" height="100" as="geometry" />
        </mxCell>
        <mxCell id="NnDwrbV4detBzDNsZIa--36" style="edgeStyle=orthogonalEdgeStyle;rounded=0;orthogonalLoop=1;jettySize=auto;html=1;entryX=0;entryY=0.667;entryDx=0;entryDy=0;entryPerimeter=0;" edge="1" parent="1" source="NnDwrbV4detBzDNsZIa--20" target="NnDwrbV4detBzDNsZIa--35">
          <mxGeometry relative="1" as="geometry">
            <Array as="points">
              <mxPoint x="625" y="260" />
              <mxPoint x="675" y="260" />
              <mxPoint x="675" y="190" />
            </Array>
          </mxGeometry>
        </mxCell>
        <mxCell id="NnDwrbV4detBzDNsZIa--37" value="" style="shape=image;html=1;verticalLabelPosition=bottom;verticalAlign=top;imageAspect=1;aspect=fixed;image=img/clipart/Gear_128x128.png" vertex="1" parent="1">
          <mxGeometry x="-2260" y="269" width="52" height="61" as="geometry" />
        </mxCell>
      </root>
    </mxGraphModel>
  </diagram>
</mxfile>
